<?xml version="1.0" encoding="UTF-8"?><svg id="Layer_1" xmlns="http://www.w3.org/2000/svg" xmlns:xlink="http://www.w3.org/1999/xlink" viewBox="0 0 813.68 664.26"><defs><style>.cls-1,.cls-2,.cls-3,.cls-4,.cls-5,.cls-6,.cls-7,.cls-8,.cls-9,.cls-10,.cls-11,.cls-12,.cls-13,.cls-14,.cls-15,.cls-16,.cls-17,.cls-18,.cls-19,.cls-20,.cls-21{fill:none;}.cls-2{stroke:url(#linear-gradient-11);stroke-width:2.74px;}.cls-2,.cls-3,.cls-5,.cls-6,.cls-7,.cls-8,.cls-9,.cls-10,.cls-11,.cls-12,.cls-13,.cls-14,.cls-15,.cls-16,.cls-17,.cls-18,.cls-19,.cls-20,.cls-21{stroke-miterlimit:10;}.cls-3{stroke:url(#linear-gradient-5);stroke-width:1.99px;}.cls-22{clip-path:url(#clippath);}.cls-4{stroke:url(#linear-gradient-4);stroke-miterlimit:10;stroke-width:1.86px;}.cls-23{fill:#ea74f8;}.cls-24{fill:#97daf8;}.cls-5{stroke:url(#linear-gradient-10);stroke-width:2.62px;}.cls-6{stroke:url(#linear-gradient-14);stroke-width:3.12px;}.cls-7{stroke:url(#linear-gradient-8);stroke-width:2.37px;}.cls-8{stroke:url(#linear-gradient-20);stroke-width:3.87px;}.cls-9{stroke:url(#linear-gradient-3);stroke-width:1.74px;}.cls-10{stroke:url(#linear-gradient-16);stroke-width:3.37px;}.cls-11{stroke:url(#linear-gradient-6);stroke-width:2.11px;}.cls-12{stroke:url(#linear-gradient-17);stroke-width:3.49px;}.cls-13{stroke:url(#linear-gradient-2);stroke-width:1.61px;}.cls-14{stroke:url(#linear-gradient-7);stroke-width:2.24px;}.cls-15{stroke:url(#linear-gradient-13);stroke-width:2.99px;}.cls-16{stroke:url(#linear-gradient-18);stroke-width:3.62px;}.cls-17{stroke:url(#linear-gradient-9);stroke-width:2.49px;}.cls-18{stroke:url(#linear-gradient-15);stroke-width:3.24px;}.cls-19{stroke:url(#linear-gradient-12);stroke-width:2.87px;}.cls-20{stroke:url(#linear-gradient);stroke-width:1.49px;}.cls-21{stroke:url(#linear-gradient-19);stroke-width:3.74px;}</style><clipPath id="clippath"><path class="cls-1" d="M436.08,116.2s-18.37-14.79-46.42-6.12c0,0-22.45-4.77-37.75,1.7,0,0-41.83,1.36-62.24,19.22,0,0-22.96,2.55-33.16,24.49,0,0-22.45,8.16-35.71,38.77-13.26,30.61,2.55,54.08,2.55,54.08,0,0-4.08,17.86,10.2,31.12,14.28,13.26,32.65,25.51,54.08,22.96,0,0-4.59,21.94,27.55,34.69,32.14,12.75,44.38,13.26,61.22,8.16,0,0,7.14,28.06,38.77,35.2,0,0,5.61,19.39,13.26,28.06,7.65,8.67,11.22,29.59,14.79,30.1s15.3,1.02,16.83-3.06c1.53-4.08-4.59-36.22-4.59-36.22,0,0,14.79-.51,26.02,1.53s34.18,7.65,49.48-7.65c15.3-15.3,23.98-28.06,14.79-40.3,0,0,21.43,6.12,39.28-17.35,17.86-23.47,12.24-47.73,10.2-53.45,0,0,11.22-26.64-10.2-45.01,0,0-1.02-18.88-18.37-31.12,0,0-4.08-26.53-25-36.22,0,0-12.75-24.49-29.08-32.65-16.32-8.16-63.77-28.06-76.52-20.92Z"/></clipPath><linearGradient id="linear-gradient" x1="191.57" y1="252.57" x2="632.55" y2="252.57" gradientTransform="matrix(1, 0, 0, 1, 0, 0)" gradientUnits="userSpaceOnUse"><stop offset="0" stop-color="#45c5ff"/><stop offset="1" stop-color="#ff6af7"/></linearGradient><linearGradient id="linear-gradient-2" x1="208.06" y1="246.7" x2="627.05" y2="246.7" xlink:href="#linear-gradient"/><linearGradient id="linear-gradient-3" x1="224.55" y1="240.84" x2="621.55" y2="240.84" xlink:href="#linear-gradient"/><linearGradient id="linear-gradient-4" x1="241.03" y1="234.97" x2="616.05" y2="234.97" xlink:href="#linear-gradient"/><linearGradient id="linear-gradient-5" x1="257.52" y1="229.11" x2="610.55" y2="229.11" xlink:href="#linear-gradient"/><linearGradient id="linear-gradient-6" x1="274.01" y1="223.24" x2="605.06" y2="223.24" xlink:href="#linear-gradient"/><linearGradient id="linear-gradient-7" x1="290.49" y1="217.38" x2="599.56" y2="217.38" xlink:href="#linear-gradient"/><linearGradient id="linear-gradient-8" x1="306.98" y1="211.51" x2="594.06" y2="211.51" xlink:href="#linear-gradient"/><linearGradient id="linear-gradient-9" x1="323.47" y1="205.65" x2="588.56" y2="205.65" xlink:href="#linear-gradient"/><linearGradient id="linear-gradient-10" x1="339.95" y1="199.78" x2="583.06" y2="199.78" xlink:href="#linear-gradient"/><linearGradient id="linear-gradient-11" x1="356.44" y1="193.92" x2="577.56" y2="193.92" xlink:href="#linear-gradient"/><linearGradient id="linear-gradient-12" x1="372.93" y1="188.05" x2="572.06" y2="188.05" xlink:href="#linear-gradient"/><linearGradient id="linear-gradient-13" x1="389.42" y1="182.19" x2="566.56" y2="182.19" xlink:href="#linear-gradient"/><linearGradient id="linear-gradient-14" x1="405.9" y1="176.32" x2="561.07" y2="176.32" xlink:href="#linear-gradient"/><linearGradient id="linear-gradient-15" x1="422.39" y1="170.46" x2="555.57" y2="170.46" xlink:href="#linear-gradient"/><linearGradient id="linear-gradient-16" x1="438.88" y1="164.59" x2="550.07" y2="164.59" xlink:href="#linear-gradient"/><linearGradient id="linear-gradient-17" x1="455.36" y1="158.72" x2="544.57" y2="158.72" xlink:href="#linear-gradient"/><linearGradient id="linear-gradient-18" x1="471.85" y1="152.86" x2="539.07" y2="152.86" xlink:href="#linear-gradient"/><linearGradient id="linear-gradient-19" x1="488.34" y1="146.99" x2="533.57" y2="146.99" xlink:href="#linear-gradient"/><linearGradient id="linear-gradient-20" x1="504.83" y1="141.13" x2="528.07" y2="141.13" xlink:href="#linear-gradient"/></defs><g><path class="cls-24" d="M224.57,484.59h3.1v5.77c3.1-3.63,7.9-6.73,14.84-6.73,10.36,0,15.27,5.77,15.27,16.98v29.69h-3.74v-28.83c0-10.46-3.95-14.52-12.28-14.52-6.62,0-10.89,2.99-13.46,6.3v37.05h-3.74v-45.7Z"/><path class="cls-24" d="M309.14,515.56c-1.39,11.21-9.61,15.7-17.83,15.7-9.82,0-19.22-6.09-19.22-23.81s9.93-23.81,18.79-23.81,18.69,5.55,18.69,23.71v.64h-33.64c.11,12.81,5.45,19.97,15.48,19.97,8.22,0,12.81-4.91,14.1-12.39h3.63Zm-3.31-10.57c-.53-11.1-5.77-18.05-14.95-18.05s-14.31,6.94-14.84,18.05h29.79Z"/><path class="cls-24" d="M323.76,484.59h3.74v28.83c0,10.46,3.74,14.52,12.07,14.52,6.51,0,10.57-2.99,13.24-6.3v-37.05h3.74v45.7h-3.1v-5.77c-3.1,3.63-7.79,6.73-14.74,6.73-10.25,0-14.95-5.77-14.95-16.98v-29.69Z"/><path class="cls-24" d="M374.59,484.59h3.1v5.55c2.46-4.7,6.94-6.51,11.75-6.51,2.88,0,5.02,.53,5.77,.85v3.74c-1.28-.53-3.52-1.07-6.19-1.07-4.06,0-8.33,1.17-10.68,5.55v37.59h-3.74v-45.7Z"/><path class="cls-24" d="M401.07,507.44c0-18.58,10.36-23.81,19.33-23.81s19.33,5.23,19.33,23.81-10.36,23.81-19.33,23.81-19.33-5.23-19.33-23.81Zm34.81,0c0-13.24-5.55-20.5-15.48-20.5s-15.48,7.26-15.48,20.5,5.55,20.5,15.48,20.5,15.48-7.26,15.48-20.5Z"/><path class="cls-23" d="M457.12,481.28c2.67-15.38,6.83-23.92,18.05-23.92,6.73,0,9.5,4.06,8.86,7.69-.43,2.78-2.46,4.7-4.8,4.7s-3.74-1.92-3.42-4.16c.32-1.81,1.81-3.42,3.74-4.06-.43-.85-2.35-1.6-4.7-1.6-3.84,0-7.69,2.24-8.76,8.44l-3.52,20.07c4.59-.11,7.47-.11,8.22-.11,.85,0,1.5,.64,1.39,1.82-.32,1.17-1.17,1.81-2.03,1.81-.96,0-3.74-.21-8.22-.21l-7.37,42.07c-3.84,22-11.11,24.99-16.55,24.99-5.02,0-7.58-4.16-6.94-7.69,.43-2.46,2.13-4.16,4.38-4.16s3.52,1.71,3.1,3.84c-.32,1.6-1.6,3.1-3.42,3.63,.43,.96,1.81,1.92,3.1,1.92,3.52,0,5.98-1.71,7.69-11.32l9.29-53.28c-4.16,0-6.41,.21-7.37,.21-.75,0-1.5-.64-1.17-1.81,.11-1.17,1.07-1.82,1.82-1.82,.85,0,3.1,0,7.37,.11l1.28-7.15Z"/><path class="cls-23" d="M497.69,532.11c-10.68,0-18.47-6.73-16.12-19.86l8.22-47.2c-5.12,0-5.77,.11-6.83,.11-.75,0-1.5-.75-1.28-1.92,.21-1.07,1.07-1.81,1.92-1.81,1.07,0,1.6,.53,10.36,.53h.43c8.65,0,9.4-.53,10.46-.53,.85,0,1.49,.75,1.39,1.81-.32,1.17-1.17,1.92-2.03,1.92-1.07,0-1.71-.11-6.83-.11l-8.65,49.23c-1.71,9.29,4.16,13.56,11.53,13.56,8.65,0,15.06-6.51,16.66-15.59l8.22-47.2c-5.13,0-5.77,.11-6.83,.11-.85,0-1.5-.75-1.28-1.92,.21-1.07,1.07-1.81,1.92-1.81,.96,0,1.5,.43,8.76,.53,7.26-.11,7.9-.53,8.97-.53,.75,0,1.5,.75,1.28,1.81-.21,1.17-1.17,1.92-1.92,1.92-1.07,0-1.71-.11-6.83-.11l-8.33,47.2c-2.35,13.45-12.6,19.86-23.17,19.86Z"/><path class="cls-23" d="M553.11,532.11c-12.49,0-19.97-9.08-19.97-16.44,0-4.38,2.99-7.58,6.62-7.58,2.35,0,4.27,1.82,4.27,4.16,0,2.78-2.78,5.34-5.98,5.34,2.46,7.05,8.22,10.25,15.27,10.25,7.58,0,15.16-5.02,15.16-13.35,0-7.37-6.41-12.39-13.03-16.02s-13.24-9.5-13.24-19.11c0-13.13,11.96-19.33,20.4-19.33,9.61,0,15.48,5.55,15.48,12.28,0,4.38-3.2,6.94-6.3,6.94-2.78,0-4.06-2.46-4.06-3.84,0-2.46,2.13-5.02,5.55-5.45-1.07-3.52-4.81-6.3-10.79-6.3-8.97,0-13.99,6.3-13.99,12.81,0,6.94,5.02,11,10.89,13.99,7.47,3.95,16.02,10.14,16.02,21.14,0,13.03-10.89,20.5-22.32,20.5Z"/></g><g class="cls-22"><g><circle class="cls-20" cx="412.06" cy="252.57" r="219.75"/><circle class="cls-13" cx="417.55" cy="246.7" r="208.69"/><circle class="cls-9" cx="423.05" cy="240.84" r="197.63"/><circle class="cls-4" cx="428.54" cy="234.97" r="186.58"/><circle class="cls-3" cx="434.04" cy="229.11" r="175.52"/><circle class="cls-11" cx="439.53" cy="223.24" r="164.47"/><circle class="cls-14" cx="445.03" cy="217.38" r="153.41"/><circle class="cls-7" cx="450.52" cy="211.51" r="142.36"/><circle class="cls-17" cx="456.01" cy="205.65" r="131.3"/><circle class="cls-5" cx="461.51" cy="199.78" r="120.24"/><circle class="cls-2" cx="467" cy="193.92" r="109.19"/><circle class="cls-19" cx="472.5" cy="188.05" r="98.13"/><circle class="cls-15" cx="477.99" cy="182.19" r="87.08"/><circle class="cls-6" cx="483.48" cy="176.32" r="76.02"/><circle class="cls-18" cx="488.98" cy="170.46" r="64.97"/><circle class="cls-10" cx="494.47" cy="164.59" r="53.91"/><circle class="cls-12" cx="499.97" cy="158.72" r="42.86"/><circle class="cls-16" cx="505.46" cy="152.86" r="31.8"/><circle class="cls-21" cx="510.96" cy="146.99" r="20.74"/><circle class="cls-8" cx="516.45" cy="141.13" r="9.69"/></g></g></svg>