<?xml version="1.0" encoding="UTF-8"?><svg xmlns="http://www.w3.org/2000/svg" xmlns:xlink="http://www.w3.org/1999/xlink" viewBox="0 0 813.68 664.26"><defs><style>.cls-1,.cls-2,.cls-3,.cls-4,.cls-5,.cls-6,.cls-7,.cls-8,.cls-9,.cls-10,.cls-11,.cls-12,.cls-13,.cls-14,.cls-15,.cls-16,.cls-17,.cls-18,.cls-19,.cls-20,.cls-21,.cls-22,.cls-23{fill:none;}.cls-2{stroke:url(#linear-gradient-7);stroke-width:5.16px;}.cls-2,.cls-3,.cls-4,.cls-5,.cls-6,.cls-7,.cls-8,.cls-9,.cls-10,.cls-11,.cls-12,.cls-13,.cls-14,.cls-15,.cls-16,.cls-17,.cls-18,.cls-19,.cls-20,.cls-21,.cls-22,.cls-23{stroke-miterlimit:10;}.cls-3{stroke:url(#linear-gradient-18);stroke-width:1.98px;}.cls-4{stroke:url(#linear-gradient-11);stroke-width:4px;}.cls-24{clip-path:url(#clippath);}.cls-5{stroke:url(#linear-gradient-6);stroke-width:5.45px;}.cls-25{fill:#ee4623;}.cls-26{fill:#ffc419;}.cls-6{stroke:url(#linear-gradient-22);stroke-width:.83px;}.cls-7{stroke:url(#linear-gradient-10);stroke-width:4.29px;}.cls-8{stroke:url(#linear-gradient-9);stroke-width:4.58px;}.cls-9{stroke:url(#linear-gradient-20);stroke-width:1.41px;}.cls-10{stroke:url(#linear-gradient-13);stroke-width:3.43px;}.cls-11{stroke:url(#linear-gradient-4);stroke-width:6.03px;}.cls-12{stroke:url(#linear-gradient-19);stroke-width:1.69px;}.cls-13{stroke:url(#linear-gradient-17);stroke-width:2.27px;}.cls-14{stroke:url(#linear-gradient-2);stroke-width:6.6px;}.cls-15{stroke:url(#linear-gradient-8);stroke-width:4.87px;}.cls-16{stroke:url(#linear-gradient-3);stroke-width:6.31px;}.cls-17{stroke:url(#linear-gradient-21);stroke-width:1.12px;}.cls-18{stroke:url(#linear-gradient-15);stroke-width:2.85px;}.cls-19{stroke:url(#linear-gradient-16);stroke-width:2.56px;}.cls-20{stroke:url(#linear-gradient-14);stroke-width:3.14px;}.cls-21{stroke:url(#linear-gradient-5);stroke-width:5.74px;}.cls-22{stroke:url(#linear-gradient);stroke-width:6.89px;}.cls-23{stroke:url(#linear-gradient-12);stroke-width:3.72px;}</style><clipPath id="clippath"><path class="cls-1" d="M138.66,330.92s-28.93-5.41-33.14-11.03c-4.21-5.62-13.86-10.02-13.86-10.02-12.35-11.47-8.82-26.92-8.82-26.92,0,0-13.68-20.3-2.21-46.77,11.47-26.47,30.89-33.53,30.89-33.53,8.82-18.97,28.68-21.18,28.68-21.18,17.65-15.44,53.83-16.62,53.83-16.62,13.24-5.59,32.65-1.47,32.65-1.47,24.27-7.5,40.15,5.29,40.15,5.29,11.03-6.18,52.07,11.03,66.19,18.09,14.12,7.06,25.15,28.24,25.15,28.24,18.09,8.38,21.62,31.33,21.62,31.33,15,10.59,15.88,26.92,15.88,26.92,18.53,15.88,8.82,38.93,8.82,38.93,1.76,4.95,6.62,25.93-8.82,46.23-15.44,20.3-33.98,15-33.98,15,7.94,10.59,.44,21.62-12.8,34.86-13.24,13.24-33.09,8.38-42.8,6.62-9.71-1.76-22.5-1.32-22.5-1.32,0,0,5.29,27.8,3.97,31.33-1.32,3.53-11.47,3.09-14.56,2.65-3.09-.44-6.18-18.53-12.8-26.03-6.62-7.5-11.47-24.27-11.47-24.27-27.36-6.18-33.53-30.45-33.53-30.45-14.56,4.41-25.15,3.97-52.95-7.06,0,0-23.94-18.28-23.59-28.82Z"/></clipPath><linearGradient id="linear-gradient" x1="552.89" y1="311.36" x2="78.57" y2="37.51" gradientTransform="matrix(1, 0, 0, 1, 0, 0)" gradientUnits="userSpaceOnUse"><stop offset="0" stop-color="#ffc419"/><stop offset="1" stop-color="#ee4623"/></linearGradient><linearGradient id="linear-gradient-2" x1="542.45" y1="305.33" x2="89.02" y2="43.54" xlink:href="#linear-gradient"/><linearGradient id="linear-gradient-3" x1="532" y1="299.29" x2="99.47" y2="49.57" xlink:href="#linear-gradient"/><linearGradient id="linear-gradient-4" x1="521.55" y1="293.26" x2="109.92" y2="55.61" xlink:href="#linear-gradient"/><linearGradient id="linear-gradient-5" x1="511.1" y1="287.23" x2="120.37" y2="61.64" xlink:href="#linear-gradient"/><linearGradient id="linear-gradient-6" x1="500.65" y1="281.19" x2="130.82" y2="67.67" xlink:href="#linear-gradient"/><linearGradient id="linear-gradient-7" x1="490.2" y1="275.16" x2="141.26" y2="73.7" xlink:href="#linear-gradient"/><linearGradient id="linear-gradient-8" x1="479.75" y1="269.13" x2="151.71" y2="79.74" xlink:href="#linear-gradient"/><linearGradient id="linear-gradient-9" x1="469.3" y1="263.1" x2="162.16" y2="85.77" xlink:href="#linear-gradient"/><linearGradient id="linear-gradient-10" x1="458.85" y1="257.06" x2="172.61" y2="91.8" xlink:href="#linear-gradient"/><linearGradient id="linear-gradient-11" x1="448.4" y1="251.03" x2="183.06" y2="97.83" xlink:href="#linear-gradient"/><linearGradient id="linear-gradient-12" x1="437.96" y1="245" x2="193.51" y2="103.87" xlink:href="#linear-gradient"/><linearGradient id="linear-gradient-13" x1="427.51" y1="238.97" x2="203.96" y2="109.9" xlink:href="#linear-gradient"/><linearGradient id="linear-gradient-14" x1="417.06" y1="232.93" x2="214.41" y2="115.93" xlink:href="#linear-gradient"/><linearGradient id="linear-gradient-15" x1="406.61" y1="226.9" x2="224.86" y2="121.97" xlink:href="#linear-gradient"/><linearGradient id="linear-gradient-16" x1="396.16" y1="220.87" x2="235.31" y2="128" xlink:href="#linear-gradient"/><linearGradient id="linear-gradient-17" x1="385.71" y1="214.83" x2="245.75" y2="134.03" xlink:href="#linear-gradient"/><linearGradient id="linear-gradient-18" x1="375.26" y1="208.8" x2="256.2" y2="140.06" xlink:href="#linear-gradient"/><linearGradient id="linear-gradient-19" x1="364.81" y1="202.77" x2="266.65" y2="146.1" xlink:href="#linear-gradient"/><linearGradient id="linear-gradient-20" x1="354.36" y1="196.74" x2="277.1" y2="152.13" xlink:href="#linear-gradient"/><linearGradient id="linear-gradient-21" x1="343.91" y1="190.7" x2="287.55" y2="158.16" xlink:href="#linear-gradient"/><linearGradient id="linear-gradient-22" x1="333.47" y1="184.67" x2="298" y2="164.19" xlink:href="#linear-gradient"/></defs><g id="Layer_1"><g><path class="cls-26" d="M321.57,461.3h3.28v6.12c3.29-3.85,8.38-7.13,15.74-7.13,10.99,0,16.2,6.12,16.2,18.01v31.48h-3.96v-30.58c0-11.1-4.19-15.4-13.02-15.4-7.02,0-11.55,3.17-14.27,6.68v39.3h-3.96v-48.47Z"/><path class="cls-26" d="M411.26,494.15c-1.47,11.89-10.19,16.65-18.91,16.65-10.42,0-20.39-6.46-20.39-25.25s10.53-25.25,19.93-25.25,19.82,5.89,19.82,25.14v.68h-35.67c.11,13.59,5.78,21.18,16.42,21.18,8.72,0,13.59-5.21,14.95-13.14h3.85Zm-3.51-11.21c-.57-11.78-6.12-19.14-15.85-19.14s-15.18,7.36-15.74,19.14h31.6Z"/><path class="cls-26" d="M426.78,461.3h3.96v30.58c0,11.1,3.96,15.4,12.8,15.4,6.91,0,11.21-3.17,14.04-6.68v-39.3h3.96v48.47h-3.28v-6.12c-3.28,3.85-8.27,7.13-15.63,7.13-10.87,0-15.85-6.12-15.85-18.01v-31.48Z"/><path class="cls-26" d="M480.69,461.3h3.28v5.89c2.61-4.98,7.36-6.91,12.46-6.91,3.06,0,5.32,.57,6.12,.91v3.96c-1.36-.57-3.74-1.13-6.57-1.13-4.3,0-8.83,1.25-11.33,5.89v39.86h-3.96v-48.47Z"/><path class="cls-26" d="M508.77,485.54c0-19.71,10.99-25.25,20.5-25.25s20.5,5.55,20.5,25.25-10.99,25.25-20.5,25.25-20.5-5.55-20.5-25.25Zm36.92,0c0-14.04-5.89-21.74-16.42-21.74s-16.42,7.7-16.42,21.74,5.89,21.74,16.42,21.74,16.42-7.7,16.42-21.74Z"/><path class="cls-25" d="M569.14,468.66h-10.65v-4.19h10.65v-26.05h23.67v4.19h-19.14v21.86h19.14v4.19h-19.14v68.06h-4.53v-68.06Z"/><path class="cls-25" d="M605.04,446.92h4.53v58.66h30.46c5.44,0,9.74-3.51,9.74-9.51v-49.15h4.53v49.04c0,8.27-5.55,13.82-14.16,13.82h-35.11v-62.85Z"/><path class="cls-25" d="M674.92,505.58h29.11c5.44,0,9.74-3.51,9.74-9.51v-15.4h-38.84v-19.93c0-8.27,5.55-13.82,14.16-13.82h29.22v4.19h-29.11c-5.44,0-9.74,3.51-9.74,9.51v15.85h38.85v19.48c0,8.27-5.55,13.82-14.16,13.82h-29.22v-4.19Z"/></g></g><g id="Layer_3"><g class="cls-24"><g><circle class="cls-22" cx="315.73" cy="174.43" r="270.36"/><circle class="cls-14" cx="315.73" cy="174.43" r="258.44"/><circle class="cls-16" cx="315.73" cy="174.43" r="246.52"/><circle class="cls-11" cx="315.73" cy="174.43" r="234.6"/><circle class="cls-21" cx="315.73" cy="174.43" r="222.68"/><circle class="cls-5" cx="315.73" cy="174.43" r="210.76"/><circle class="cls-2" cx="315.73" cy="174.43" r="198.84"/><circle class="cls-15" cx="315.73" cy="174.43" r="186.93"/><circle class="cls-8" cx="315.73" cy="174.43" r="175.01"/><circle class="cls-7" cx="315.73" cy="174.43" r="163.09"/><circle class="cls-4" cx="315.73" cy="174.43" r="151.17"/><circle class="cls-23" cx="315.73" cy="174.43" r="139.25"/><circle class="cls-10" cx="315.73" cy="174.43" r="127.33"/><circle class="cls-20" cx="315.73" cy="174.43" r="115.41"/><circle class="cls-18" cx="315.73" cy="174.43" r="103.49"/><circle class="cls-19" cx="315.73" cy="174.43" r="91.57"/><circle class="cls-13" cx="315.73" cy="174.43" r="79.65"/><circle class="cls-3" cx="315.73" cy="174.43" r="67.73"/><circle class="cls-12" cx="315.73" cy="174.43" r="55.82"/><circle class="cls-9" cx="315.73" cy="174.43" r="43.9"/><circle class="cls-17" cx="315.73" cy="174.43" r="31.98"/><circle class="cls-6" cx="315.73" cy="174.43" r="20.06"/></g></g></g></svg>