<?xml version="1.0" encoding="UTF-8"?><svg id="Layer_3" xmlns="http://www.w3.org/2000/svg" viewBox="0 0 813.68 664.26"><defs><style>.cls-1,.cls-2{fill:#fff;}.cls-3{opacity:.24;}.cls-4{opacity:.45;}.cls-5{opacity:.42;}.cls-6{opacity:.5;}.cls-2{opacity:.8;}</style></defs><g class="cls-6"><path class="cls-1" d="M146.34,195.55v-15.78h15.44v-15.44h30.88v-15.44h30.88v-15.1h-77.2v-15.78h123.86v15.78h-15.44v15.44h-30.88v15.44h-30.88v15.1h77.2v15.78h-123.86Z"/><path class="cls-1" d="M223.88,241.53h15.44v31.22h-15.44v15.44h-46.66v-46.32h-15.1v30.88h-15.78v-31.22h15.44v-15.44h62.1v15.44Zm-30.88,30.88h30.54v-30.54h-30.54v30.54Z"/><path class="cls-1" d="M146.34,396.27v-15.78h15.44v-15.1h-15.44v-31.22h15.44v-15.44h77.54v15.78h-77.2v30.54h77.2v15.78h-77.2v15.44h-15.78Z"/><path class="cls-1" d="M146.34,427.15v-15.78h77.2v-15.44h15.78v15.78h-15.44v15.1h15.44v31.22h-15.78v-30.88h-77.2Z"/><path class="cls-1" d="M161.78,519.8h-15.44v-31.22h15.44v-15.44h62.1v15.44h15.44v31.22h-15.44v15.44h-62.1v-15.44Zm.34-.34h61.42v-30.54h-61.42v30.54Z"/></g><g><path class="cls-1" d="M277.78,472.85h48.64v48.42c0,8.16-5.48,13.64-13.98,13.64h-34.66v-62.06Zm4.47,57.92h30.08c5.37,0,9.62-3.47,9.62-9.39v-44.39h-39.69v53.78Z"/><path class="cls-1" d="M350.13,486.49c0-8.16,5.48-13.64,13.98-13.64h34.66v48.42c0,8.16-5.48,13.64-13.98,13.64h-34.66v-48.42Zm4.47,44.28h30.08c5.37,0,9.62-3.47,9.62-9.39v-44.39h-30.08c-5.37,0-9.62,3.47-9.62,9.39v44.39Z"/><path class="cls-1" d="M423.37,472.85h42.83v24.04c0,8.16-5.48,13.64-13.98,13.64h-24.38v-4.14h24.26c5.37,0,9.62-3.47,9.62-9.39v-20.02h-33.88v57.92h-4.47v-62.06Z"/><path class="cls-1" d="M485.21,472.85h42.83v24.04c0,8.16-5.48,13.64-13.98,13.64h-24.38v-4.14h24.26c5.37,0,9.62-3.47,9.62-9.39v-20.02h-33.88v57.92h-4.47v-62.06Z"/><path class="cls-1" d="M547.05,472.85h4.47v57.92h34.78v4.14h-39.25v-62.06Z"/><path class="cls-1" d="M600.61,472.85h39.25v4.14h-34.77v25.05h34.77v4.14h-34.77v24.6h34.77v4.14h-39.25v-62.06Z"/><path class="cls-1" d="M661.1,472.85h42.83v24.04c0,8.16-5.48,13.64-13.98,13.64h-24.38v-4.14h24.26c5.37,0,9.62-3.47,9.62-9.39v-20.02h-33.88v57.92h-4.47v-62.06Zm24.49,34.89h5.37l19.34,27.17h-5.48l-19.23-27.17Z"/></g><g><g class="cls-5"><rect class="cls-2" x="646.04" y="240.58" width="15.7" height="15.65"/><rect class="cls-2" x="379.09" y="256.22" width="15.7" height="15.65"/><rect class="cls-2" x="630.34" y="256.22" width="15.7" height="15.65"/><path class="cls-1" d="M693.15,256.22v-31.3h-15.7v-31.3h-15.7v-15.65h-15.7v-15.65h-15.7v-15.65h-15.7v-15.65h-47.11v-15.65h-157.03v15.65h-47.11v15.65h-15.7v15.65h-15.7v15.65h-15.7v31.3h15.7v15.65h15.7v-15.65h15.7v15.65h-15.7v46.95h15.7v-15.65h15.7v-15.65h15.7v15.65h15.7v-31.3h15.7v15.65h47.11v-15.65h31.41v15.65h15.7v-15.65h47.11v31.3h-15.7v-15.65h-31.41v15.65h-15.7v-15.65h-15.7v15.65h-62.81v15.65h-31.41v46.95h15.7v-15.65h15.7v15.65h47.11v15.65h15.7v-15.65h31.41v15.65h15.7v-15.65h62.81v-15.65h15.7v-15.65h15.7v-15.65h-31.41v15.65h-15.7v15.65h-31.41v-15.65h-31.41v15.65h-15.7v-15.65h-15.7v15.65h-47.11v-15.65h47.11v-15.65h15.7v15.65h15.7v-15.65h31.41v15.65h31.41v-15.65h15.7v-15.65h31.41v-15.65h15.7v-15.65h15.7v15.65h15.7v15.65h-15.7v15.65h47.11v-15.65h-15.7Zm-78.51-31.3h-15.7v-15.65h15.7v15.65Zm-157.03-15.65h-15.7v-15.65h15.7v15.65Z"/><rect class="cls-2" x="661.74" y="287.52" width="15.7" height="15.65"/><polygon class="cls-2" points="630.34 303.17 630.34 318.82 646.04 318.82 661.74 318.82 661.74 303.17 646.04 303.17 630.34 303.17"/><rect class="cls-2" x="598.93" y="318.82" width="15.7" height="15.65"/><polygon class="cls-2" points="598.93 350.12 598.93 365.77 583.23 365.77 567.53 365.77 551.82 365.77 536.12 365.77 536.12 381.42 551.82 381.42 551.82 397.07 567.53 397.07 583.23 397.07 598.93 397.07 598.93 381.42 614.63 381.42 630.34 381.42 630.34 365.77 630.34 350.12 614.63 350.12 598.93 350.12"/></g><g class="cls-3"><rect class="cls-1" x="441.9" y="193.63" width="15.7" height="15.65"/><rect class="cls-1" x="347.69" y="209.28" width="15.7" height="15.65"/><rect class="cls-1" x="598.93" y="209.28" width="15.7" height="15.65"/><polygon class="cls-1" points="551.82 240.58 551.82 256.22 567.53 256.22 567.53 240.58 567.53 224.93 551.82 224.93 536.12 224.93 520.42 224.93 520.42 240.58 536.12 240.58 551.82 240.58"/><rect class="cls-1" x="646.04" y="224.93" width="15.7" height="15.65"/><rect class="cls-1" x="379.09" y="240.58" width="15.7" height="15.65"/><rect class="cls-1" x="504.72" y="240.58" width="15.7" height="15.65"/><rect class="cls-1" x="630.34" y="240.58" width="15.7" height="15.65"/><rect class="cls-1" x="661.74" y="240.58" width="15.7" height="15.65"/><polygon class="cls-1" points="410.5 271.87 426.2 271.87 426.2 256.22 441.9 256.22 457.61 256.22 473.31 256.22 489.01 256.22 489.01 240.58 504.72 240.58 504.72 224.93 489.01 224.93 473.31 224.93 473.31 240.58 457.61 240.58 441.9 240.58 426.2 240.58 426.2 224.93 410.5 224.93 410.5 240.58 410.5 256.22 394.8 256.22 394.8 271.87 410.5 271.87"/><polygon class="cls-1" points="614.63 256.22 598.93 256.22 598.93 271.87 614.63 271.87 630.34 271.87 630.34 256.22 614.63 256.22"/><rect class="cls-1" x="489.01" y="271.87" width="15.7" height="15.65"/><polygon class="cls-1" points="536.12 271.87 520.42 271.87 520.42 287.52 536.12 287.52 551.82 287.52 551.82 271.87 536.12 271.87"/><rect class="cls-1" x="583.23" y="271.87" width="15.7" height="15.65"/><path class="cls-1" d="M693.15,271.87h-31.41v-15.65h-15.7v15.65h-15.7v15.65h-15.7v15.65h-15.7v15.65h15.7v15.65h-15.7v-15.65h-62.81v15.65h-15.7v-15.65h-31.41v15.65h-15.7v-15.65h-47.11v-15.65h-15.7v15.65h-15.7v31.3h15.7v15.65h94.22v31.3h15.7v15.65h15.7v46.95h31.41v-46.95h31.41v15.65h31.41v-15.65h15.7v-31.3h31.41v-15.65h15.7v-15.65h15.7v-78.25h-15.7Zm-62.81,31.3h31.41v-15.65h15.7v15.65h-15.7v15.65h-31.41v-15.65Zm-15.7,78.25h-15.7v15.65h-47.11v-15.65h-15.7v-15.65h62.81v-15.65h31.41v31.3h-15.7Z"/><polygon class="cls-1" points="394.8 287.52 394.8 271.87 379.09 271.87 379.09 256.22 363.39 256.22 363.39 271.87 347.69 271.87 347.69 256.22 347.69 240.58 347.69 224.93 331.99 224.93 331.99 209.28 316.28 209.28 300.58 209.28 300.58 224.93 300.58 240.58 316.28 240.58 316.28 256.22 316.28 271.87 316.28 287.52 331.99 287.52 331.99 303.17 347.69 303.17 347.69 318.82 363.39 318.82 379.09 318.82 394.8 318.82 394.8 303.17 394.8 287.52"/><polygon class="cls-1" points="457.61 287.52 441.9 287.52 441.9 303.17 457.61 303.17 473.31 303.17 489.01 303.17 489.01 287.52 473.31 287.52 457.61 287.52"/><rect class="cls-1" x="504.72" y="287.52" width="15.7" height="15.65"/><polygon class="cls-1" points="551.82 287.52 551.82 303.17 567.53 303.17 583.23 303.17 583.23 287.52 567.53 287.52 551.82 287.52"/></g></g><g><g><polygon class="cls-1" points="536.12 115.38 520.42 115.38 520.42 131.03 520.42 146.68 536.12 146.68 536.12 131.03 536.12 115.38"/><polygon class="cls-1" points="489.01 131.03 489.01 115.38 473.31 115.38 473.31 131.03 473.31 146.68 473.31 162.33 489.01 162.33 489.01 146.68 489.01 131.03"/><rect class="cls-1" x="567.53" y="131.03" width="15.7" height="15.65"/><polygon class="cls-1" points="441.9 146.68 441.9 131.03 441.9 115.38 426.2 115.38 426.2 131.03 426.2 146.68 426.2 162.33 441.9 162.33 441.9 146.68"/><polygon class="cls-1" points="551.82 146.68 536.12 146.68 536.12 162.33 536.12 177.98 551.82 177.98 551.82 162.33 551.82 146.68"/><polygon class="cls-1" points="598.93 162.33 614.63 162.33 614.63 146.68 598.93 146.68 583.23 146.68 583.23 162.33 598.93 162.33"/><rect class="cls-1" x="331.99" y="162.33" width="15.7" height="15.65"/><polygon class="cls-1" points="394.8 162.33 394.8 146.68 394.8 131.03 379.09 131.03 379.09 146.68 379.09 162.33 379.09 177.98 394.8 177.98 394.8 162.33"/><polygon class="cls-1" points="630.34 177.98 646.04 177.98 646.04 162.33 630.34 162.33 614.63 162.33 614.63 177.98 630.34 177.98"/><polygon class="cls-1" points="441.9 193.63 457.61 193.63 457.61 177.98 457.61 162.33 441.9 162.33 441.9 177.98 441.9 193.63"/><polygon class="cls-1" points="489.01 193.63 504.72 193.63 504.72 177.98 504.72 162.33 489.01 162.33 489.01 177.98 489.01 193.63"/><rect class="cls-1" x="551.82" y="177.98" width="15.7" height="15.65"/><polygon class="cls-1" points="363.39 193.63 363.39 177.98 347.69 177.98 347.69 193.63 347.69 209.28 347.69 224.93 363.39 224.93 363.39 209.28 363.39 193.63"/><polygon class="cls-1" points="394.8 209.28 410.5 209.28 410.5 193.63 410.5 177.98 394.8 177.98 394.8 193.63 394.8 209.28"/><rect class="cls-1" x="504.72" y="193.63" width="15.7" height="15.65"/><polygon class="cls-1" points="583.23 193.63 567.53 193.63 567.53 209.28 583.23 209.28 598.93 209.28 598.93 193.63 583.23 193.63"/><rect class="cls-1" x="661.74" y="193.63" width="15.7" height="15.65"/><rect class="cls-1" x="300.58" y="209.28" width="15.7" height="15.65"/><rect class="cls-1" x="410.5" y="209.28" width="15.7" height="15.65"/><polygon class="cls-1" points="457.61 224.93 473.31 224.93 473.31 209.28 473.31 193.63 457.61 193.63 457.61 209.28 457.61 224.93"/><rect class="cls-1" x="520.42" y="209.28" width="15.7" height="15.65"/><polygon class="cls-1" points="661.74 209.28 646.04 209.28 630.34 209.28 614.63 209.28 598.93 209.28 598.93 224.93 614.63 224.93 630.34 224.93 646.04 224.93 661.74 224.93 661.74 209.28"/><rect class="cls-1" x="363.39" y="224.93" width="15.7" height="15.65"/><polygon class="cls-1" points="551.82 240.58 567.53 240.58 567.53 224.93 551.82 224.93 536.12 224.93 536.12 240.58 551.82 240.58"/><polygon class="cls-1" points="677.44 240.58 661.74 240.58 661.74 256.22 677.44 256.22 693.15 256.22 693.15 240.58 677.44 240.58"/><rect class="cls-1" x="441.9" y="256.22" width="15.7" height="15.65"/><rect class="cls-1" x="504.72" y="256.22" width="15.7" height="15.65"/><polygon class="cls-1" points="598.93 256.22 598.93 271.87 614.63 271.87 630.34 271.87 630.34 256.22 614.63 256.22 598.93 256.22"/><rect class="cls-1" x="394.8" y="271.87" width="15.7" height="15.65"/><rect class="cls-1" x="457.61" y="271.87" width="15.7" height="15.65"/><polygon class="cls-1" points="536.12 271.87 520.42 271.87 520.42 287.52 536.12 287.52 551.82 287.52 551.82 271.87 536.12 271.87"/><rect class="cls-1" x="410.5" y="287.52" width="15.7" height="15.65"/><rect class="cls-1" x="473.31" y="287.52" width="15.7" height="15.65"/><polygon class="cls-1" points="551.82 287.52 551.82 303.17 567.53 303.17 583.23 303.17 583.23 287.52 567.53 287.52 551.82 287.52"/><rect class="cls-1" x="426.2" y="303.17" width="15.7" height="15.65"/><rect class="cls-1" x="598.93" y="303.17" width="15.7" height="15.65"/><rect class="cls-1" x="520.42" y="318.82" width="15.7" height="15.65"/><rect class="cls-1" x="473.31" y="334.47" width="15.7" height="15.65"/><rect class="cls-1" x="614.63" y="350.12" width="15.7" height="15.65"/><rect class="cls-1" x="520.42" y="365.77" width="15.7" height="15.65"/><rect class="cls-1" x="536.12" y="381.42" width="15.7" height="15.65"/></g><g class="cls-4"><polygon class="cls-1" points="331.99 224.93 316.28 224.93 316.28 240.58 316.28 256.22 331.99 256.22 331.99 240.58 331.99 224.93"/><rect class="cls-1" x="410.5" y="224.93" width="15.7" height="15.65"/><rect class="cls-1" x="473.31" y="224.93" width="15.7" height="15.65"/><rect class="cls-1" x="363.39" y="240.58" width="15.7" height="15.65"/><rect class="cls-1" x="426.2" y="240.58" width="15.7" height="15.65"/><rect class="cls-1" x="489.01" y="240.58" width="15.7" height="15.65"/><polygon class="cls-1" points="598.93 256.22 598.93 240.58 583.23 240.58 567.53 240.58 567.53 256.22 583.23 256.22 598.93 256.22"/><polygon class="cls-1" points="347.69 256.22 331.99 256.22 331.99 271.87 331.99 287.52 347.69 287.52 347.69 271.87 347.69 256.22"/><rect class="cls-1" x="379.09" y="256.22" width="15.7" height="15.65"/><polygon class="cls-1" points="661.74 271.87 661.74 256.22 646.04 256.22 630.34 256.22 630.34 271.87 646.04 271.87 661.74 271.87"/><rect class="cls-1" x="347.69" y="287.52" width="15.7" height="15.65"/><rect class="cls-1" x="583.23" y="287.52" width="15.7" height="15.65"/><polygon class="cls-1" points="693.15 287.52 677.44 287.52 661.74 287.52 661.74 303.17 677.44 303.17 693.15 303.17 708.85 303.17 708.85 287.52 693.15 287.52"/><rect class="cls-1" x="363.39" y="303.17" width="15.7" height="15.65"/><polygon class="cls-1" points="489.01 303.17 489.01 318.82 504.72 318.82 520.42 318.82 520.42 303.17 504.72 303.17 489.01 303.17"/><polygon class="cls-1" points="630.34 303.17 614.63 303.17 614.63 318.82 630.34 318.82 646.04 318.82 661.74 318.82 661.74 303.17 646.04 303.17 630.34 303.17"/><rect class="cls-1" x="441.9" y="318.82" width="15.7" height="15.65"/><rect class="cls-1" x="536.12" y="318.82" width="15.7" height="15.65"/><rect class="cls-1" x="394.8" y="334.47" width="15.7" height="15.65"/><rect class="cls-1" x="457.61" y="334.47" width="15.7" height="15.65"/><polygon class="cls-1" points="567.53 350.12 583.23 350.12 598.93 350.12 598.93 334.47 583.23 334.47 567.53 334.47 551.82 334.47 551.82 350.12 567.53 350.12"/><polygon class="cls-1" points="677.44 334.47 677.44 350.12 693.15 350.12 708.85 350.12 708.85 334.47 693.15 334.47 677.44 334.47"/><rect class="cls-1" x="410.5" y="350.12" width="15.7" height="15.65"/><rect class="cls-1" x="489.01" y="350.12" width="15.7" height="15.65"/><rect class="cls-1" x="598.93" y="350.12" width="15.7" height="15.65"/><polygon class="cls-1" points="630.34 350.12 630.34 365.77 646.04 365.77 661.74 365.77 661.74 350.12 646.04 350.12 630.34 350.12"/><rect class="cls-1" x="504.72" y="365.77" width="15.7" height="15.65"/><polygon class="cls-1" points="583.23 381.42 567.53 381.42 551.82 381.42 551.82 397.07 567.53 397.07 583.23 397.07 598.93 397.07 598.93 381.42 583.23 381.42"/><polygon class="cls-1" points="614.63 397.07 598.93 397.07 598.93 412.72 614.63 412.72 630.34 412.72 646.04 412.72 646.04 397.07 630.34 397.07 614.63 397.07"/><rect class="cls-1" x="536.12" y="412.72" width="15.7" height="15.65"/><rect class="cls-1" x="551.82" y="428.36" width="15.7" height="15.65"/></g></g></svg>